<?xml version="1.0" encoding="utf-8"?>
<!-- Generator: Adobe Illustrator 24.0.2, SVG Export Plug-In . SVG Version: 6.00 Build 0)  -->
<svg version="1.1" xmlns="http://www.w3.org/2000/svg" xmlns:xlink="http://www.w3.org/1999/xlink" x="0px" y="0px"
	 viewBox="0 0 330 330" style="enable-background:new 0 0 330 330;" xml:space="preserve">
<style type="text/css">
	.st0{fill:#FFFFFF;}
	.st1{fill:#FFE600;}
</style>
<g id="Layer_2">
	<rect class="st0" width="330" height="330"/>
</g>
<g id="Capa_1">
	<g>
		<path class="st1" d="M165,22C86.1,22,22,86.1,22,165s64.1,143,143,143s143-64.1,143-143S243.9,22,165,22z M165,282
			c-64.5,0-117-52.5-117-117S100.5,48,165,48s117,52.5,117,117S229.5,282,165,282z"/>
		<path class="st1" d="M236.2,133.1l-41.2-6l-18.4-37.3c-2.2-4.4-6.7-7.3-11.7-7.3s-9.4,2.8-11.7,7.3l-18.4,37.3l-41.2,6
			c-4.9,0.7-8.9,4.2-10.5,8.8c-1.6,4.7-0.3,9.9,3.3,13.3l29.8,29l-7,41c-0.9,4.9,1.1,9.8,5.2,12.7c4,2.9,9.3,3.3,13.7,1l36.7-19.4
			l36.8,19.3c1.9,1,4,1.5,6.1,1.5c0,0,0,0,0.1,0c7.2,0,13-5.8,13-13c0-1-0.1-2-0.3-2.9l-6.9-40.3l29.8-29c3.6-3.5,4.9-8.6,3.3-13.3
			C245.2,137.3,241.1,133.8,236.2,133.1z"/>
	</g>
</g>
</svg>
